<?xml version="1.0" standalone="no"?>
<!DOCTYPE svg PUBLIC "-//W3C//DTD SVG 1.1//EN" "http://www.w3.org/Graphics/SVG/1.1/DTD/svg11.dtd" >
<svg xmlns="http://www.w3.org/2000/svg">
<metadata>Generated by IcoMoon</metadata>
<defs>
<font id="saunders" horiz-adv-x="1024">
<font-face units-per-em="1024" ascent="960" descent="-64" />
<missing-glyph horiz-adv-x="1024" />
<glyph unicode="&#x20;" horiz-adv-x="512" d="" />
<glyph unicode="&#xe900;" glyph-name="envelope" d="M1004.6 578.4c7.8 6.2 19.4 0.4 19.4-9.4v-409c0-53-43-96-96-96h-832c-53 0-96 43-96 96v408.8c0 10 11.4 15.6 19.4 9.4 44.8-34.8 104.2-79 308.2-227.2 42.2-30.8 113.4-95.6 184.4-95.2 71.4-0.6 144 65.6 184.6 95.2 204 148.2 263.2 192.6 308 227.4zM512 320c46.4-0.8 113.2 58.4 146.8 82.8 265.4 192.6 285.6 209.4 346.8 257.4 11.6 9 18.4 23 18.4 37.8v38c0 53-43 96-96 96h-832c-53 0-96-43-96-96v-38c0-14.8 6.8-28.6 18.4-37.8 61.2-47.8 81.4-64.8 346.8-257.4 33.6-24.4 100.4-83.6 146.8-82.8z" />
<glyph unicode="&#xe901;" glyph-name="phone" d="M994.78 236.4l-224 96c-5.551 2.429-12.020 3.843-18.819 3.843-14.954 0-28.311-6.839-37.114-17.559l-0.067-0.084-99.2-121.2c-156.321 74.881-279.499 198.059-352.454 349.931l-1.926 4.449 121.2 99.2c10.818 8.848 17.669 22.197 17.669 37.145 0 6.814-1.423 13.295-3.989 19.163l0.12-0.308-96 224c-7.646 17.214-24.591 29.002-44.29 29.002-3.797 0-7.492-0.438-11.036-1.266l0.327 0.064-208-48c-21.471-5.084-37.2-24.090-37.2-46.769 0-0.004 0-0.008 0-0.011v0.001c0-513 415.8-928 928-928 0.009 0 0.020 0 0.031 0 22.68 0 41.686 15.729 46.704 36.874l0.065 0.326 48 208c0.751 3.201 1.182 6.876 1.182 10.652 0 19.822-11.872 36.871-28.893 44.425l-0.31 0.123z" />
<glyph unicode="&#xe902;" glyph-name="road" horiz-adv-x="1152" d="M1146.38 154.66l-279.58 640c-9.94 22.76-31.6 37.34-55.44 37.34h-195.18l4.9-46.32c1-9.44-6.42-17.68-15.92-17.68h-58.32c-9.5 0-16.92 8.24-15.92 17.68l4.9 46.32h-195.18c-23.86 0-45.52-14.58-55.46-37.34l-279.58-640c-18.5-42.38 11.020-90.66 55.48-90.66h393.68l20.62 195.36c1.72 16.28 15.44 28.64 31.82 28.64h137.6c16.38 0 30.1-12.36 31.82-28.64l20.62-195.36h393.68c44.46 0 73.98 48.28 55.46 90.66zM520.8 689.68c0.879 8.084 7.667 14.32 15.912 14.32 0.003 0 0.006 0 0.009 0h78.58c8.18 0 15.060-6.18 15.92-14.32l9.2-87.16c1.5-14.18-9.62-26.52-23.86-26.52h-81.080c-14.26 0-25.36 12.34-23.86 26.52l9.18 87.16zM631.28 352h-110.58c-19 0-33.82 16.46-31.82 35.36l10.14 96c1.72 16.28 15.44 28.64 31.82 28.64h90.3c16.38 0 30.1-12.36 31.82-28.64l10.14-96c2-18.9-12.82-35.36-31.82-35.36z" />
<glyph unicode="&#xe903;" glyph-name="baseball" horiz-adv-x="992" d="M737 232.2l57.6 27.8c22.2-45.8 52-86.4 88.2-121.8 68 85 109 192.6 109 309.8 0 117-40.8 224.4-108.4 309.2-35.6-34.6-65.2-74.2-87.2-119l-57.4 28.2c25.6 52 60 98 101.6 138-89.2 86.2-210.4 139.6-344.4 139.6-133.8 0-255-53.2-344.2-139.4 41.4-39.8 75.8-85.8 101.4-137.6l-57.4-28.2c-22 44.6-51.4 84.2-87 118.8-68-85-108.8-192.4-108.8-309.6s40.8-224.6 108.8-309.4c36.4 35.4 66.4 76 88.6 122l57.6-27.8c-25.8-53.4-60.6-100.6-103-141.4 89-86.2 210.2-139.4 344-139.4 133.6 0 254.6 53 343.8 139-42.2 40.8-77 87.8-102.8 141.2zM280.4 296.2l-61 19.6c29.8 92.8 25.4 187.6-1.2 268l60.8 20c30-91.2 36-199.8 1.4-307.6zM713 603l60.8-20c-26.4-80.2-31-175-1.2-268l-61-19.6c-34.6 108-28.6 216.6 1.4 307.6z" />
<glyph unicode="&#xe904;" glyph-name="football" horiz-adv-x="992" d="M963 839.4c-9.6 36.4-38.2 65-74.6 74.8-47.8 12.8-122.4 28-209.6 29.8l313.2-313.6c-1.6 87-16.4 161.2-29 209zM29 56.6c9.6-36.4 38.2-65 74.6-74.8 47.8-12.8 122.4-28 209.6-29.8l-313.2 313.6c1.6-87 16.4-161.2 29-209zM8.4 393.2l432.4-433.2c265 38.8 497.6 237.4 543 542.8l-432.6 433.2c-265-38.8-497.6-237.4-542.8-542.8zM643 640.4c6.2 6.2 16.4 6.2 22.6 0l22.6-22.6c6.2-6.2 6.2-16.4 0-22.6l-56.6-56.6 56.6-56.6c6.2-6.2 6.2-16.4 0-22.6l-22.6-22.6c-6.2-6.2-16.4-6.2-22.6 0l-56.6 56.6-45.2-45.4 56.6-56.6c6.2-6.2 6.2-16.4 0-22.6l-22.6-22.6c-6.2-6.2-16.4-6.2-22.6 0l-56.6 56.6-45.2-45.2 56.6-56.6c6.2-6.2 6.2-16.4 0-22.6l-22.6-22.6c-6.2-6.2-16.4-6.2-22.6 0l-56.6 56.6-56.6-56.6c-6.2-6.2-16.4-6.2-22.6 0l-22.6 22.6c-6.2 6.2-6.2 16.4 0 22.6l56.6 56.6-56.6 56.4c-6.2 6.2-6.2 16.4 0 22.6l22.6 22.6c6.2 6.2 16.4 6.2 22.6 0l56.6-56.6 45.2 45.2-56.6 56.6c-6.2 6.2-6.2 16.4 0 22.6l22.6 22.6c6.2 6.2 16.4 6.2 22.6 0l56.6-56.6 45.2 45.2-56.6 56.6c-6.2 6.2-6.2 16.4 0 22.6l22.6 22.6c6.2 6.2 16.4 6.2 22.6 0l56.6-56.6 56.6 57z" />
<glyph unicode="&#xe905;" glyph-name="tiktok" d="M534.613 959.147c55.893 0.853 111.36 0.427 166.827 0.853 3.413-65.28 26.88-131.84 74.667-177.92 47.787-47.36 115.2-69.12 180.907-76.373v-171.947c-61.44 2.133-123.307 14.933-179.2 41.387-24.32 11.093-46.933 25.173-69.12 39.68-0.427-124.587 0.427-249.173-0.853-373.333-3.413-59.733-23.040-119.040-57.6-168.107-55.893-81.92-152.747-135.253-252.16-136.96-61.013-3.413-122.027 13.227-174.080 43.947-86.187 50.773-146.773 143.787-155.733 243.627-0.853 21.333-1.28 42.667-0.427 63.573 7.68 81.067 47.787 158.72 110.080 211.627 70.827 61.44 169.813 90.88 262.4 73.387 0.853-63.147-1.707-126.293-1.707-189.44-42.24 13.653-91.733 9.813-128.853-15.787-26.88-17.493-47.36-44.373-58.027-74.667-8.96-21.76-6.4-45.653-5.973-68.693 10.24-69.973 77.653-128.853 149.333-122.453 47.787 0.427 93.44 28.16 118.187 68.693 8.107 14.080 17.067 28.587 17.493 45.227 4.267 76.373 2.56 152.32 2.987 228.693 0.427 171.947-0.427 343.467 0.853 514.987z" />
<glyph unicode="&#xe906;" glyph-name="search" d="M1010 74.6l-199.4 199.4c-9 9-21.2 14-34 14h-32.6c55.2 70.6 88 159.4 88 256 0 229.8-186.2 416-416 416s-416-186.2-416-416 186.2-416 416-416c96.6 0 185.4 32.8 256 88v-32.6c0-12.8 5-25 14-34l199.4-199.4c18.8-18.8 49.2-18.8 67.8 0l56.6 56.6c18.8 18.8 18.8 49.2 0.2 68zM416 288c-141.4 0-256 114.4-256 256 0 141.4 114.4 256 256 256 141.4 0 256-114.4 256-256 0-141.4-114.4-256-256-256z" />
<glyph unicode="&#xe907;" glyph-name="star" horiz-adv-x="1152" d="M518.6 924.4l-130.6-264.8-292.2-42.6c-52.4-7.6-73.4-72.2-35.4-109.2l211.4-206-50-291c-9-52.6 46.4-92 92.8-67.4l261.4 137.4 261.4-137.4c46.4-24.4 101.8 14.8 92.8 67.4l-50 291 211.4 206c38 37 17 101.6-35.4 109.2l-292.2 42.6-130.6 264.8c-23.4 47.2-91.2 47.8-114.8 0z" />
<glyph unicode="&#xe908;" glyph-name="running" horiz-adv-x="832" d="M544 768c53.020 0 96 42.98 96 96s-42.98 96-96 96-96-42.98-96-96 42.98-96 96-96zM227.38 325.060l-29.6-69.040h-133.78c-35.34 0-64-28.66-64-64s28.66-64 64-64h154.9c38.5 0 73.16 22.88 88.22 58.18l17.58 41.040-21.34 12.6c-34.64 20.46-60.12 50.74-75.98 85.22zM768 512.020h-88.060l-52.12 106.5c-25 51.1-70.9 88.46-123.56 101.88l-142.16 42.28c-56.6 13.6-115.54 1.1-161.68-34.28l-79.34-60.82c-28.060-21.5-33.38-61.66-11.84-89.72s61.68-33.32 89.72-11.84l79.38 60.82c15.34 11.78 34.88 16 50.54 12.28l29.4-8.74-74.92-174.78c-25.24-58.96-2.62-128.020 52.6-160.62l169.96-100.34-54.94-175.46c-10.56-33.72 8.22-69.62 41.94-80.18 6.38-2 12.82-2.96 19.16-2.96 27.22 0 52.46 17.54 61.040 44.9l63.28 202.12c11.82 41.54-5.78 86.16-43.28 108.78l-122.48 72.28 62.62 156.56 40.54-82.86c16-32.68 49.84-53.78 86.22-53.78h107.98c35.34 0 64 28.66 64 64s-28.66 63.98-64 63.98z" />
<glyph unicode="&#xe909;" glyph-name="facebook" horiz-adv-x="640" d="M558.28 384l28.44 185.32h-177.82v120.26c0 50.7 24.84 100.12 104.48 100.12h80.84v157.78s-73.36 12.52-143.5 12.52c-146.44 0-242.16-88.76-242.16-249.44v-141.24h-162.78v-185.32h162.78v-448h200.34v448z" />
<glyph unicode="&#xe90a;" glyph-name="instagram" d="M512 960c-139.093 0-156.459-0.64-211.072-3.072-54.528-2.56-91.648-11.136-124.288-23.808-33.664-13.056-62.251-30.592-90.709-59.051s-46.037-57.003-59.051-90.709c-12.672-32.64-21.291-69.76-23.808-124.288-2.56-54.613-3.072-71.979-3.072-211.072s0.64-156.459 3.072-211.072c2.56-54.485 11.136-91.648 23.808-124.288 13.056-33.621 30.592-62.251 59.051-90.709 28.459-28.416 57.003-46.037 90.709-59.051 32.683-12.629 69.803-21.291 124.288-23.808 54.613-2.56 71.979-3.072 211.072-3.072s156.459 0.64 211.072 3.072c54.485 2.56 91.648 11.179 124.288 23.808 33.621 13.056 62.251 30.635 90.709 59.051 28.416 28.459 46.037 56.96 59.051 90.709 12.629 32.64 21.291 69.803 23.808 124.288 2.56 54.613 3.072 71.979 3.072 211.072s-0.64 156.459-3.072 211.072c-2.56 54.485-11.179 91.691-23.808 124.288-13.056 33.664-30.635 62.251-59.051 90.709-28.459 28.459-56.96 46.037-90.709 59.051-32.64 12.672-69.803 21.291-124.288 23.808-54.613 2.56-71.979 3.072-211.072 3.072zM512 867.84c136.661 0 152.96-0.683 206.933-3.029 49.92-2.347 77.013-10.624 95.019-17.707 23.979-9.259 40.96-20.352 58.965-38.229 17.877-17.92 28.971-34.944 38.229-58.923 6.997-18.005 15.36-45.099 17.621-95.019 2.432-54.016 2.987-70.229 2.987-206.933s-0.64-152.96-3.157-206.933c-2.603-49.92-10.923-77.013-17.963-95.019-9.557-23.979-20.437-40.96-38.357-58.965-17.877-17.877-35.157-28.971-58.88-38.229-17.92-6.997-45.44-15.36-95.36-17.621-54.357-2.432-70.357-2.987-207.317-2.987-137.003 0-153.003 0.64-207.317 3.157-49.963 2.603-77.483 10.923-95.403 17.963-24.277 9.557-40.96 20.437-58.837 38.357-17.963 17.877-29.44 35.157-38.4 58.88-7.040 17.92-15.317 45.44-17.92 95.36-1.92 53.76-2.603 70.357-2.603 206.677 0 136.363 0.683 153.003 2.603 207.403 2.603 49.92 10.88 77.397 17.92 95.317 8.96 24.32 20.437 40.96 38.4 58.923 17.877 17.877 34.56 29.397 58.837 38.315 17.92 7.083 44.843 15.403 94.763 17.963 54.4 1.92 70.4 2.56 207.317 2.56l1.92-1.28zM512 710.912c-145.28 0-262.912-117.76-262.912-262.912 0-145.28 117.76-262.912 262.912-262.912 145.28 0 262.912 117.76 262.912 262.912 0 145.28-117.76 262.912-262.912 262.912zM512 277.333c-94.293 0-170.667 76.373-170.667 170.667s76.373 170.667 170.667 170.667 170.667-76.373 170.667-170.667-76.373-170.667-170.667-170.667zM846.763 721.28c0-33.92-27.563-61.44-61.44-61.44-33.92 0-61.44 27.563-61.44 61.44s27.563 61.397 61.44 61.397c33.835 0.043 61.44-27.52 61.44-61.397z" />
<glyph unicode="&#xe90b;" glyph-name="snapchat" d="M520.789 926.165c42.24 0 185.472-11.776 253.013-163.029 22.571-50.901 17.195-137.344 12.757-206.805l-0.128-2.56c-0.512-7.68-0.939-14.72-1.28-21.76 3.2-1.92 8.661-3.84 17.109-3.84 12.8 0.683 28.117 5.12 44.075 12.843 7.040 3.755 14.677 4.437 19.797 4.437 7.765 0 15.317-1.237 21.717-3.84 19.2-6.357 31.317-20.437 31.317-35.755 0.64-19.157-16.64-35.797-51.755-49.835-3.797-1.237-8.917-3.2-14.677-5.077-19.2-5.76-48.597-15.36-56.875-34.56-3.84-9.557-2.603-22.357 5.12-37.035l0.64-0.64c2.56-5.803 65.109-148.267 204.416-171.264 10.88-1.877 18.56-11.52 17.92-21.717 0-3.2-0.64-6.357-1.92-9.6-10.24-24.277-54.315-42.155-134.229-54.229-2.517-3.883-5.12-16-6.997-24.32-1.237-7.637-3.157-15.36-5.717-23.595-3.243-11.563-11.52-17.28-23.68-17.28h-1.28c-5.76 0-13.355 1.323-22.955 3.157-15.36 3.2-32.64 5.76-54.315 5.76-12.8 0-25.557-0.64-38.955-3.157-25.6-4.437-47.915-19.797-73.515-37.717-36.395-25.557-77.909-54.955-140.544-54.955-2.56 0-5.077 0.64-7.68 0.64h-6.357c-62.635 0-103.552 28.8-139.904 54.955-25.557 17.92-47.232 33.237-72.832 37.717-13.397 1.92-26.837 3.157-39.595 3.157-23.040 0-40.875-3.797-54.272-6.357-9.003-1.835-16.683-3.157-23.040-3.157-15.957 0-22.315 9.557-24.875 17.92-2.603 8.192-3.84 16.597-5.76 24.192-1.963 7.723-4.48 21.077-7.083 24.32-81.835 9.472-125.867 27.392-136.064 52.309-1.323 2.688-2.219 6.4-2.347 9.6-0.64 10.368 7.040 19.84 17.92 21.717 139.264 23.040 201.813 165.504 204.416 171.52l0.683 1.237c7.68 14.72 9.557 27.52 5.077 37.077-8.32 18.517-37.717 28.075-56.832 34.517-5.163 1.237-10.24 3.157-14.763 5.077-47.232 18.56-53.632 39.68-51.072 54.315 3.84 20.437 28.757 33.835 49.835 33.835 6.229 0 11.52-1.237 16.341-3.157 17.92-8.277 33.664-12.8 47.104-12.8 9.984 0 16.384 2.56 19.84 4.48l-1.963 24.277c-4.181 69.376-9.6 155.776 13.099 206.379 65.664 150.485 208.469 162.005 250.624 162.005l17.877 0.64h2.56z" />
<glyph unicode="&#xe90c;" glyph-name="twitter" d="M1022.037 765.056c-37.76-16.597-78.080-27.904-120.533-33.067 43.264 26.069 76.544 67.157 92.288 116.181-40.576-23.68-85.547-40.917-133.419-50.517-38.229 40.917-92.715 66.517-153.216 66.517-115.925 0-209.92-93.995-209.92-209.792 0-16.64 1.92-32.64 5.419-47.957-174.507 8.235-329.173 92.032-432.683 218.709-18.219-30.805-28.416-66.603-28.416-105.6 0-72.96 37.12-137.088 93.355-174.763-34.432 1.109-66.816 10.581-95.061 26.283v-2.603c0-101.76 72.235-186.624 168.363-205.952-17.621-4.736-36.224-7.296-55.296-7.296-13.397 0-26.24 1.28-39.083 3.669 26.923-83.328 104.32-144.085 196.437-145.792-71.68-56.277-162.517-89.813-260.352-89.813-16.64 0-33.237 0.981-49.92 2.859 93.397-59.477 203.435-94.251 322.432-94.251 386.304 0 597.291 319.829 597.291 596.736 0 8.917 0 17.92-0.64 26.88 41.003 29.397 76.8 66.56 104.96 108.715l-2.005 0.853z" />
<glyph unicode="&#xe90d;" glyph-name="youtube" horiz-adv-x="1152" d="M1099.31 711.834c-12.562 47.3-49.574 84.552-96.568 97.194-85.18 22.972-426.742 22.972-426.742 22.972s-341.56 0-426.742-22.972c-46.994-12.644-84.006-49.894-96.568-97.194-22.824-85.734-22.824-264.61-22.824-264.61s0-178.876 22.824-264.61c12.562-47.3 49.574-83 96.568-95.642 85.182-22.972 426.742-22.972 426.742-22.972s341.56 0 426.742 22.972c46.994 12.642 84.006 48.342 96.568 95.642 22.824 85.734 22.824 264.61 22.824 264.61s0 178.876-22.824 264.61zM464.29 284.818v324.812l285.478-162.41-285.478-162.402z" />
<glyph unicode="&#xe90e;" glyph-name="hudl" horiz-adv-x="1025" d="M0 699.993c0.506 1.949 1.322 3.872 1.457 5.829 1.251 16.519 4.654 31.848 9.943 46.266l-0.381-1.186c19.766 55.557 67.006 98.236 123.918 111.908 15.406 3.701 31.033 5.147 46.883 4.717 15.087-0.433 29.459-2.723 43.139-6.65l-1.225 0.301c2.878-0.801 5.013-0.364 7.355 1.475 16.452 13.059 34.883 25.61 54.206 36.791l2.207 1.178c3.333 1.909 6.422 2.506 10.306 1.843 20.765-3.525 38.305-7.616 55.45-12.631l-3.419 0.857q96.735-27.74 173.461-92.848c0.696-0.544 1.317-1.099 1.899-1.691l0.003-0.003c1.96-2.186 1.421-4.408-1.421-5.304-2.415-0.761-4.932-1.198-7.402-1.803q-88.521-21.693-162.332-75.115c-2.342-1.694-3.166-3.57-2.936-6.459 4.175-52.439-12.094-97.832-47.9-136.103-23.919-25.569-53.349-42.020-87.428-50.1-3.44-0.878-7.8-1.702-12.237-2.287l-0.615-0.066c-2.892-0.364-4.561-1.632-5.628-4.317-9.249-23.245-16.928-46.993-22.604-71.352-3.746-15.274-7.048-34.175-9.191-53.425l-0.193-2.132c-2.28-20.764-2.881-41.638-2.35-62.522 1.313-50.427 10.458-98.294 26.257-143.019l-1.001 3.251c0.43-1.257 1.056-2.55 1.093-3.821 0.025-1.060-0.412-2.459-1.162-3.133-1.060-0.943-2.51-0.652-3.614 0.404-0.787 0.754-1.57 1.519-2.324 2.306-59.52 62.088-99.158 134.89-118.002 218.869-6.918 30.001-10.882 64.452-10.882 99.829 0 10.425 0.344 20.77 1.022 31.023l-0.074-1.393c0.648 9.919 1.763 19.813 2.962 29.682 0.364 2.885-0.364 4.787-2.379 6.736-15.728 15.089-28.588 33.025-37.775 53l-0.446 1.082c-8.495 18.724-13.657 38.315-15.183 58.854-0.149 1.982-0.962 3.912-1.457 5.869zM507.811-64c-2.943 0.517-5.872 1.275-8.838 1.512-15.191 1.224-30.002 4.371-44.162 9.868-56.93 22.116-93.861 62.496-110.061 121.525-0.823 2.998-2.346 4.652-5.231 5.829-24.16 9.888-44.484 20.191-63.873 31.89l2.058-1.152c-2.306 1.304-4.058 3.358-4.945 5.825l-0.024 0.076c-9.643 24.776-17.822 54.098-23.148 84.403l-0.418 2.872c-4.143 23.372-6.511 50.28-6.511 77.741 0 6.062 0.115 12.098 0.344 18.104l-0.026-0.866c0.899 23.911 3.481 46.542 7.649 68.613l-0.447-2.845c0.169 0.985 0.368 1.821 0.612 2.637l-0.040-0.156c0.754 2.473 2.987 3.198 5.060 1.599 0.735-0.642 1.401-1.319 2.014-2.042l0.023-0.028q62.941-66.806 146.482-104.837c7.286-3.311 5.501-3.439 12.021 0.976 20.243 13.723 42.395 22.724 66.438 27.27 14.16 2.677 28.461 3.712 42.73 2.572 50.726-4.058 92.739-25.431 125.313-64.693 2.688-3.238 5.253-3.84 9.107-3.257 14.968 2.277 29.846 5.027 44.555 8.579q78.321 18.899 145.797 62.988c37.487 24.592 69.794 52.869 97.774 85.013l0.481 0.564c0.729 0.823 1.413 1.672 2.186 2.437 0.929 0.914 2.040 1.355 3.304 0.729 1.37-0.685 1.872-1.876 1.628-3.337-0.238-1.27-0.508-2.337-0.835-3.378l0.056 0.205c-9.155-31.472-20.154-58.576-33.523-84.249l1.197 2.525c-22.764-43.986-50.397-81.736-82.928-114.632l0.042 0.043q-64.336-65.17-148.628-101.016c-0.67-0.284-1.326-0.605-2.014-0.834-2.277-0.765-3.442-2.324-4.073-4.663-1.515-5.61-2.914-11.293-4.994-16.71-22.797-59.877-65.265-97.668-127.576-112.837-8.779-2.138-17.941-2.685-26.924-4.007-1.286-0.186-2.55-0.572-3.81-0.863zM1025.093 676.69c-0.295-0.769-0.805-1.523-0.849-2.306-0.809-14.054-4.291-27.54-8.983-40.705q-13.788-38.694-43.35-67.338c-2.437-2.353-3.173-4.605-2.718-8.014 1.92-14.313 3.235-28.695 3.501-43.142 0.135-7.391-0.109-14.79 0-22.181 0.036-2.79-1.188-4.787-2.856-6.816-52.743-64.162-121.263-113.504-199.696-142.326l-3.228-1.038c-1.111-0.463-2.404-0.82-3.751-1.010l-0.085-0.010c-2.164-0.208-3.217 0.856-3.111 2.991 0.107 1.045 0.331 2.003 0.66 2.911l-0.027-0.084c5.573 17.434 10.633 38.808 14.178 60.689l0.36 2.696c2.28 14.626 4.135 29.318 4.641 44.122 0.441 12.848 0.86 25.722 0.612 38.57-0.226 11.752-1.395 23.482-2.065 35.23-0.157 2.761-1.843 3.985-4.047 5.027-11.482 5.441-21.36 11.552-30.47 18.608l0.373-0.278c-35.991 27.809-58.569 64.037-66.908 108.72-6.007 32.184-2.94 63.779 8.863 94.422 0.262 0.678 0.495 1.373 0.809 2.025 1.020 2.098 0.648 3.934-0.805 5.723-3.985 4.892-7.814 9.916-11.865 14.753q-91.799 109.7-228.934 150.449c-11.352 3.588-26.175 7.283-41.269 10.215l-2.809 0.455c-0.672 0.095-1.268 0.231-1.843 0.412l0.080-0.022c-1.377 0.51-2.459 1.526-2.080 2.987 0.262 1.009 1.177 2.269 2.091 2.601 2.608 0.943 5.351 1.523 8.065 2.146 14.994 3.435 30.075 6.36 45.339 8.349 14.437 1.88 28.888 3.41 43.455 3.643 1.395 0.022 2.779 0.528 4.167 0.809h25.5c1.395-0.28 2.783-0.729 4.193-0.812 8.342-0.539 16.724-0.71 25.037-1.559q17.154-1.749 34.217-4.32c23.026-3.508 45.535-9.264 67.636-16.564 50.359-16.633 96.302-41.506 138.063-74.121 2.448-1.909 4.626-2.466 7.65-1.53 9.736 3.113 21.037 5.274 32.719 6.043l0.431 0.023c18.101 1.188 36.046 0 53.823-4.102 57.484-13.293 106.101-56.642 125.587-112.4 4.572-13.085 8.040-26.432 8.856-40.359 0.044-0.78 0.554-1.53 0.849-2.291z" />
<glyph unicode="&#xe90f;" glyph-name="usatf" d="M182.128 959.264c2.669-18.372 5.058-36.16 7.846-53.873 9.654-59.531 22.347-111.47 38.633-161.793l-2.138 7.642c28.584-91.416 58.228-182.507 87.417-273.74 6.246-19.517 12.493-39.024 18.588-58.584 0.489-1.643 0.77-3.531 0.77-5.484 0-0.664-0.033-1.321-0.096-1.968l0.007 0.082q-3.88-48.707-7.943-97.403c-2.994-35.868-6.344-71.726-9.262-107.583-2.518-30.832-5.911-61.675-6.614-92.572-0.659-28.909 10.494-55.202 24.478-80.101 19.971-35.544 46.535-65.706 76.61-92.94 1.383-1.254 2.734-2.55 4.939-4.604-0.993 0.185-1.859 0.428-2.693 0.739l0.111-0.036c-39.932 23.775-79.463 48.156-114.78 78.631-9.495 8.328-18.168 16.85-26.339 25.837l-0.235 0.262c-25.040 27.266-37.36 59.989-38.678 96.625-1.081 31.34-1.081 62.68-1.156 94.020-0.173 49.344 0 98.689-0.173 148.055-0.038 4.479-1.045 8.713-2.823 12.516l0.078-0.185q-47.334 101.736-95.036 203.3c-23.537 50.166-34.215 102.968-30.497 158.257 5.101 75.519 32.269 142.954 77.356 203.343 0.51 0.552 1.043 1.060 1.605 1.534l0.027 0.022zM609.207-64.001c6.484 6.063 12.677 11.671 18.642 17.529 27.547 27.017 51.527 56.726 69.1 91.319 16.481 32.421 22.003 66.463 17.442 102.666-3.339 26.401-4.971 53.030-7.295 79.561q-3.696 42.212-7.262 84.456-2.929 34.69-5.728 69.413c-0.778 9.499-1.783 18.999-2.161 28.53-0.025 0.526-0.040 1.143-0.040 1.763 0 4.063 0.619 7.982 1.768 11.667l-0.074-0.277c29.395 91.546 59.114 182.994 88.422 274.572 18.815 58.682 36.236 117.86 47.561 178.509 5.025 26.844 8.397 54.035 12.514 81.052 0.097 0.659 0.184 1.308 0.454 3.242 2.28-2.885 3.966-4.863 5.49-6.97 36.873-51.214 61.373-107.583 70.721-170.263 9.424-63.242 1.189-124.172-25.634-182.248-32.032-69.391-64.679-138.491-96.906-207.796-1.711-3.597-2.742-7.807-2.82-12.249v-0.027c-0.184-74.384 0-148.768-0.27-223.152-0.119-28.8-3.642-57.115-17.205-83.213-12.428-23.937-30.648-43.012-50.998-60.205-35.339-29.849-74.503-54.11-114.186-77.615-0.456-0.148-0.981-0.242-1.526-0.259h-0.009zM636.257 189.324c-1.362-1.081-2.691-2.226-4.074-3.242-21.733-16.632-43.401-33.339-65.263-49.788-3.815-2.864-5.014-5.133-3.372-10.104 8.354-25.245 16.21-50.674 24.164-76.038 0.638-2.021 1.081-4.085 1.891-7.035-2.421 1.556-4.063 2.55-5.641 3.642-22.543 15.486-45.119 30.94-67.554 46.578-3.123 2.161-5.198 2.356-8.451 0.086-21.668-15.13-43.52-30.086-65.306-45.087l-8.267-5.63c2.291 7.424 4.204 13.638 6.149 19.852 6.776 21.614 13.465 43.228 20.458 64.777 1.21 3.739 0.562 5.728-2.518 8.062-21.97 16.599-43.811 33.393-65.674 50.133-1.664 1.275-3.242 2.615-5.911 4.733 3.091 0.13 4.95 0.281 6.819 0.281 27.374 0 54.737 0.13 82.133-0.097 4.452 0 6.171 1.47 7.511 5.555 8.786 26.812 17.864 53.527 26.844 80.263 0.486 1.448 1.081 2.864 1.967 5.339 1.016-2.777 1.718-4.561 2.323-6.376 8.862-26.401 17.799-52.792 26.477-79.247 1.318-4.020 2.994-5.587 7.489-5.544 27.19 0.249 54.37 0.119 81.56 0.119h5.857zM206.66 286.554c-2.032 2.313-3.426 3.847-4.766 5.403q-46.362 55.288-92.756 110.479c-14.849 17.561-22.597 38.354-27.46 60.259-12.342 55.677-9.964 111.117 3.955 166.232 0.13 0.497 0.357 0.983 0.811 2.237 0.769-1.033 1.544-2.215 2.251-3.442l0.095-0.178q58.357-124.517 116.715-249.089c0.906-1.799 1.475-3.908 1.566-6.14l0.001-0.030q0.151-41.066 0-82.133c0.011-0.821-0.173-1.664-0.411-3.599zM817.176 286.090c0 22.089 0.756 42.633-0.227 63.080-0.854 17.777 3.242 33.501 10.915 49.571 36.225 75.757 71.531 151.956 107.183 228.026 0.753 1.79 1.969 3.26 3.5 4.301l0.034 0.022c2.68-14.373 5.782-28.692 7.954-43.141 2.386-15.582 3.749-33.559 3.749-51.853 0-11.899-0.576-23.662-1.703-35.265l0.116 1.474c-2.161-24.283-6.214-48.296-16.373-70.612-5.208-11.527-11.377-21.463-18.653-30.468l0.205 0.262c-30.335-37.057-61.383-73.487-92.183-110.231-1.059-1.405-2.259-2.68-4.517-5.166zM90.14 382.152c0.8-1.156 1.513-2.378 2.41-3.447q55.429-65.62 110.793-131.315c2.178-2.752 3.532-6.244 3.641-10.048l0.001-0.024c0.378-34.939 0.367-69.867 0.551-104.827 0-3.934 0.648-7.867 0.486-12.007-59.935 77.713-104.654 162.309-119.233 260.663zM816.927 120.873c0.097 38.592 0.151 77.918 0.389 117.234 0 0.042-0.001 0.092-0.001 0.142 0 2.871 0.92 5.527 2.481 7.689l-0.027-0.039q55.926 66.56 112.144 132.86c0.728 0.894 1.752 1.522 2.92 1.735l0.030 0.005c-0.54-4.215-0.951-8.451-1.653-12.644-8.267-49.172-25.288-95.382-47.691-139.734-20.662-40.213-42.941-74.762-68.155-106.9l1.076 1.424c-0.735-0.951-1.556-1.826-1.513-1.772z" />
<glyph unicode="&#xe910;" glyph-name="usatf2" horiz-adv-x="876" d="M108.798 959.354c5.46-49.221 13.402-92.951 24.056-135.608l-1.471 6.956c14.598-61.187 33.618-121.227 52.971-181.122q37.038-114.7 73.971-229.233c0.646-2.069 1.019-4.449 1.019-6.915 0-0.774-0.037-1.539-0.108-2.295l0.007 0.096c-2.085-26.485-4.296-52.971-6.548-79.435q-3.942-46.735-7.966-93.449-3.316-38.664-6.673-77.329c-1.001-11.762-2.482-23.503-2.982-35.286-1.502-35.286 10.427-66.735 27.903-96.661 19.708-33.576 45.359-62.23 74.117-88.256 1.022-0.938 2.085-1.835 3.086-2.774 0.411-0.599 0.795-1.284 1.114-2.003l0.033-0.082c-6.861 4.171-12.742 7.57-18.561 11.136-36.308 22.314-72.198 45.254-104.002 73.742-23.586 21.188-43.252 45.129-52.699 76.14-5.002 16.016-7.883 34.431-7.883 53.519 0 0.123 0 0.245 0 0.368v-0.019c-0.313 76.807-0.229 153.635-0.459 230.443-0.048 4.17-0.996 8.107-2.659 11.642l0.073-0.172c-33.576 72.407-67.944 144.459-100.811 217.2-21.272 47.027-28.654 96.974-24.713 148.464 5.506 72.282 31.595 137.077 73.742 195.699 1.314 1.814 2.836 3.504 4.296 5.214 0.125 0.167 0.626 0.021 1.147 0.021zM535.774-63.562c9.864 9.656 19.958 19.103 29.509 29.050 24.65 25.735 45.755 53.972 60.916 86.505 14.098 30.26 18.415 61.771 14.348 94.909-3.128 25.317-4.755 50.823-6.965 76.244q-4.067 46.714-7.987 93.408c-1.919 22.669-3.733 45.338-5.589 68.028-0.709 8.821-1.648 17.643-2.085 26.464-0.018 0.404-0.028 0.879-0.028 1.356 0 3.515 0.552 6.901 1.573 10.076l-0.065-0.233c32.575 101.728 65.546 203.332 97.808 305.144 18.081 57.079 33.242 114.95 43.148 174.094 3.191 19.144 5.589 38.435 8.467 58.518 1.752-2.085 3.462-3.816 4.88-5.777 36.308-50.155 60.478-105.441 70.384-166.836 9.718-60.478 3.837-119.309-20.542-175.491-21.167-48.841-44.274-96.869-66.735-145.169-11.47-24.692-23.399-49.196-34.869-73.888-1.566-3.353-2.505-7.274-2.565-11.407v-0.021c-0.229-74.367-0.229-148.735-0.438-223.144 0-24.066-2.419-47.84-11.178-70.572-10.657-27.674-29.509-49.258-51.281-68.591-30.406-26.965-64.42-48.862-98.913-70.092-7.174-4.442-14.452-8.717-21.668-13.076zM515.796 43.443c-2.44 1.606-3.962 2.607-5.464 3.65-22.731 15.641-45.525 31.282-68.153 47.027-1.008 0.949-2.37 1.532-3.869 1.532s-2.86-0.583-3.871-1.534l0.003 0.003q-33.764-23.524-67.736-46.735c-1.564-1.084-3.17-2.085-5.672-3.733 0.646 2.649 0.98 4.4 1.522 6.090 8.112 25.797 16.162 51.636 24.504 77.35 1.418 4.379 0.584 6.653-3.066 9.385-21.397 16.037-42.564 32.387-63.815 48.612l-7.57 5.881h6.757c27.611 0 55.244 0 82.855-0.104 4.317 0 5.923 1.397 7.216 5.339 8.759 26.694 17.81 53.283 26.756 79.915 0.521 1.585 1.126 3.149 2.085 5.944 2.085-5.818 3.629-10.427 5.193-15.182 8.008-23.837 16.058-47.653 23.878-71.552 0.437-2.581 2.657-4.522 5.329-4.522 0.328 0 0.648 0.029 0.96 0.085l-0.033-0.005c29.53 0.146 59.060 0 90.071 0-2.294-1.898-3.608-3.045-4.984-4.171-22.21-16.996-44.358-34.055-66.735-50.885-3.128-2.357-3.942-4.296-2.69-8.154 8.342-25.922 16.433-51.928 24.588-77.892 0.626-1.648 1.105-3.462 1.939-6.34zM743.173 288.15q0 42.71 0 85.504c0.139 1.821 0.648 3.496 1.451 4.988l-0.033-0.067q58.601 125.127 117.223 250.255c0.375 0.772 0.813 1.522 1.793 3.378 1.064-3.921 2.085-6.861 2.69-9.885 12.513-55.327 14.244-110.717 0.396-166.086-5.561-22.723-15.99-42.486-30.163-58.93l0.154 0.183c-30.031-34.89-59.31-70.426-88.903-105.712-1.168-1.418-2.419-2.774-3.629-4.171zM13.263 631.437c0.918-1.793 1.856-3.587 2.711-5.422q57.496-122.729 114.95-245.583c1.176-2.301 1.929-4.997 2.083-7.853l0.002-0.050c0.146-26.923 0.104-53.846 0-80.791 0-1.126-0.167-2.273-0.334-4.296-1.814 1.981-3.086 3.295-4.171 4.713q-47.173 56.078-94.2 112.177c-13.618 16.267-20.855 35.453-25.609 55.786-13.576 57.329-10.636 114.345 4.567 171.32zM861.293 380.244c-14.723-97.683-59.206-181.81-118.078-259.243v26.694c0 30.051 0 60.103 0 90.175-0.003 0.115-0.005 0.25-0.005 0.386 0 3.62 1.389 6.916 3.664 9.383l-0.009-0.010q54.743 64.649 109.32 129.298c1.189 1.397 2.461 2.753 3.691 4.171zM16.308 382.037l36.954-43.69q38.164-45.213 76.369-90.321c2.182-2.454 3.515-5.705 3.515-9.267 0-0.203-0.004-0.404-0.013-0.605l0.001 0.029q-0.188-43.795 0-87.589c0-9.864 0.73-19.708 1.168-30.614-59.978 78.663-104.669 163.27-119.288 261.579z" />
<glyph unicode="&#xe911;" glyph-name="logo" horiz-adv-x="4702" d="M3916.355 414.139v-47.399h-314.352v46.59c13.643 1.442 26.97 1.934 39.909 4.395 25.106 4.852 35.162 15.542 38.679 40.964 1.569 11.189 2.465 24.116 2.465 37.251 0 0.502-0.001 1.003-0.004 1.505v-0.077q0.316 159.919 0 319.978c0 0.090 0 0.197 0 0.303 0 12.871-0.831 25.548-2.441 37.98l0.155-1.468c-3.516 27.040-15.823 39.276-42.758 43.109-11.533 1.653-23.207 2.497-35.655 3.762v47.258c4.571 0.387 7.982 0.949 11.393 0.949 110.129 0 220.293 0.457 330.527-0.211 38.679-0.246 77.111-3.833 113.118-20.676 72.118-33.686 106.331-105.944 84.706-179.856-12.272-41.949-41.808-67.969-79.573-86.324-8.826-4.29-18.003-7.876-23.137-10.092 29.607-41.421 59.249-82.632 88.609-124.018 16.913-23.84 33.193-48.208 50.247-71.977s39.171-40.155 70.641-41.738v-49.227h-70.817c-31.646 0-63.292 0.809-94.939-0.387-14.276-0.527-22.856 4.395-29.783 16.175q-45.324 77.357-91.422 153.976c-11.393 19.058-22.504 38.433-35.162 56.611-16.21 23.172-57.631 37.483-83.124 29.466-3.594-2.088-6.068-5.763-6.466-10.040l-0.004-0.051c0-47.434-0.703-94.939 1.477-142.302 1.793-38.081 17.581-51.548 55.627-53.482zM3837.732 674.34c26.794 2.075 52.427 2.743 77.603 6.4 34.881 4.993 56.26 26.829 65.613 60.198 8.931 31.646 9.494 64.101-1.758 94.939-5.063 14.065-14.944 28.974-26.934 37.132-34.6 23.453-74.685 21.379-114.524 19.832zM2337.352 900.576v50.739c20.922 0 41.246-0.527 61.569 0 100.67 3.165 201.375 9.599 301.94-1.864 103.342-11.744 186.923-56.26 237.206-150.495 56.541-105.944 48.067-264.070-51.443-355.14-48.876-44.762-106.718-71.345-172.577-73.278-123.526-3.516-247.121-3.516-370.682-5.169-2.153 0.307-4.095 0.861-5.919 1.64l0.152-0.058v46.555c10.021 1.266 20.359 2.11 30.451 3.973 28.13 5.274 37.905 15.225 42.441 43.496 0.793 5.215 1.246 11.233 1.246 17.356 0 0.673-0.005 1.344-0.016 2.014l0.001-0.101c0 117.759 0.457 235.588 0 353.277-0.246 49.227-12.764 61.71-61.921 65.93-3.587 0.281-7.068 0.774-12.447 1.125zM2566.47 901.068v-16.456q0-194.097 0-388.123c0.008-11.16 0.672-22.156 1.956-32.962l-0.127 1.316c3.094-26.337 13.678-38.679 40.226-43.355 64.066-11.463 137.591 8.58 167.654 95.818 26.583 77.357 26.266 156.297 9.142 235.588-8.861 40.929-27.427 77.357-59.53 104.995-45.184 39.171-100.846 41.492-159.321 43.179zM1653.267 949.205c65.226 0 128.448 0.352 191.67-0.527 5.978 0 12.834-7.032 17.581-12.272q141.494-157.598 282.6-315.583c6.54-7.314 13.151-14.522 19.796-21.871 1.828 2.004 3.129 2.813 3.129 3.516 0 69.727 0.457 139.454-0.281 209.181-0.519 14.905-3.259 29.001-7.899 42.203l0.304-0.993c-8.228 25.704-27.145 40.331-53.763 44.551-5.731 0.914-11.463 1.653-17.581 2.567v47.786h209.146v-47.329c-5.45-1.16-11.146-2.215-16.737-3.516-29.079-7.032-48.419-27.040-52.744-56.576-2.037-14.020-3.2-30.207-3.2-46.666 0-0.196 0-0.392 0-0.588v0.031q-0.387-207.458 0-414.917v-22.75c-18.249 0-35.162-0.844-51.794 0.527-5.239 0.422-10.795 6.153-14.803 10.549q-174.687 196.593-348.846 393.397c-4.466 5.063-9.002 10.127-17.019 19.128v-20.078c0-79.080 0-158.231 0-237.311 0.070-14.264 1.039-28.231 2.853-41.93l-0.181 1.669c5.38-42.195 24.614-60.936 66.809-66 4.044-0.492 8.052-0.774 14.065-1.371v-47.786h-219.765v47.082c10.795 1.538 20.235 3.589 29.418 6.243l-1.499-0.371c27.321 9.599 46.801 26.372 49.227 57.596 0.668 9.318 2.286 18.636 2.286 27.954q0.316 152.113 0 304.155c-0.088 11.764-1.364 23.178-3.714 34.195l0.198-1.107c-6.364 30.943-27.075 50.177-58.37 55.205-6.822 1.090-13.643 2.004-20.711 3.059zM3562.41 365.966h-534.469v47.399c14.065 1.582 27.181 2.778 40.366 4.641 20.781 2.918 32.103 16.175 35.444 35.866 2.228 12.596 3.507 27.102 3.516 41.905v0.009c0.281 107.773 0 215.581 0 323.494 0 6.435 0 12.905-0.422 19.339-2.813 45.711-16.983 59.776-63.046 61.569l-16.175 0.809v47.082h496.88c2.918-49.72 5.802-99.158 8.861-151.866-15.401 0-29.747-0.844-43.883 0.527-3.868 0.387-8.017 7.032-10.549 11.533-10.197 18.988-18.706 38.96-29.958 57.28-9.999 17.065-28.248 28.344-49.13 28.344-0.22 0-0.439-0.001-0.658-0.004h0.033c-44.938 0.316-89.91 0-136.184 0v-198.668c27.602 1.828 54.924 2.356 81.893 5.767 17.581 2.25 26.266 16.386 29.642 33.053 2.215 10.865 3.516 21.906 5.38 34.072h48.383v-197.613h-46.59c-3.305 15.014-6.153 29.15-9.599 43.179-3.085 14.242-15.131 24.912-29.826 25.874l-0.098 0.005c-25.95 2.708-52.111 3.516-80.487 5.028 0-21.695 0-40.261 0-58.792 0-37.518 0-75.001 0.703-112.52 0.668-31.646 11.217-47.293 42.195-50.142 13.917-1.155 30.123-1.813 46.482-1.813 21.078 0 41.9 1.093 62.414 3.224l-2.566-0.216c28.411 2.497 49.895 21.097 63.96 44.973 12.395 20.885 24.221 45.302 34.014 70.729l1.149 3.393c4.466 11.639 9.002 15.964 20.886 14.909 10.338-0.949 20.816-0.211 31.295-0.211zM1410.013 900.646v47.118h215.932v-46.661c-2.828-1.245-6.268-2.446-9.811-3.396l-0.527-0.12c-40.859-7.947-60.866-29.22-61.851-70.712-1.371-56.822-0.422-113.68-1.020-170.503-0.387-35.162-1.020-70.325-2.848-105.487-4.219-79.784-42.371-138.259-115.368-170.573-92.723-41.035-186.044-37.94-276.412 7.63-61.956 31.224-94.939 84.847-99.826 153.203-3.973 54.22-3.2 108.828-3.938 163.259-0.527 42.195 0.211 84.39-0.246 126.585-0.598 50.564-11.92 62.554-62.132 67.758-4.009 0.422-7.982 1.16-12.658 1.899v47.575h307.144v-47.293c-11.533-1.301-23.031-2.286-34.424-3.938-24.614-3.516-35.162-13.151-39.945-37.307-1.922-9.408-3.047-20.24-3.094-31.327v-0.038c-0.176-82.034-0.316-164.068 0.281-246.137 0.482-20.808 2.242-40.749 5.211-60.294l-0.324 2.592c10.549-79.502 85.304-118.849 156.543-107.456 75.072 11.99 118.216 59.178 121.873 142.021 3.798 85.972 3.094 172.296 1.688 258.303-0.879 53.13-22.363 73.841-75.142 81.331-2.989 0.422-5.802 1.231-9.107 1.969zM4349.838 420.116c-3.516-11.182-7.49-19.339-8.58-27.849-1.934-14.944-9.74-19.058-23.735-17.581-5.768 0.355-12.51 0.557-19.299 0.557-5.072 0-10.118-0.113-15.135-0.336l0.713 0.025v201.27c15.893 0 31.646 0.738 46.872-0.598 3.516-0.281 7.243-7.56 9.213-12.307 10.549-25.317 17.581-52.497 31.154-75.986 27.813-48.137 69.411-76.971 127.393-76.056 0.143-0.001 0.311-0.002 0.48-0.002 31.94 0 59.11 20.425 69.16 48.927l0.158 0.513c9.564 27.743 0.985 58.44-24.965 78.201-17.581 13.362-37.272 24.051-56.682 34.776-40.402 22.363-82.526 41.984-121.662 66.316-86.464 53.763-108.793 167.408-50.388 246.348 60.233 81.401 181.966 97.611 261.503 34.776 3.516-2.813 7.032-5.591 11.779-9.107 1.561 2.225 3.136 4.801 4.552 7.474l0.195 0.403c12.834 29.607 12.799 29.607 45.043 29.325h13.819v-174.054c-14.065 0-28.13-1.231-41.632 0.703-4.36 0.598-9.213 8.931-11.041 14.628-13.784 43.32-35.901 80.874-77.357 102.217-15.165 7.589-33.001 12.153-51.873 12.446l-0.098 0.001c-32.244 0.738-56.049-17.37-64.875-44.234-9.177-27.919 0.985-58.967 28.341-78.693 15.999-11.533 34.072-20.394 51.583-29.677 47.504-25.211 97.646-46.309 142.302-75.775 81.753-53.939 99.791-170.714 41.105-246.594-42.898-55.416-101.022-80.065-170.573-76.76-56.295 2.672-105.522 23.84-147.471 66.703zM68.461 419.8c-3.516-9.845-8.087-16.808-8.509-24.051-1.196-18.706-11.357-22.891-27.778-21.097-4.955 0.327-10.743 0.513-16.574 0.513-4.473 0-8.92-0.11-13.339-0.326l0.622 0.024v200.18h50.915c6.47-18.917 12.201-38.679 19.796-57.315 20.5-50.95 53.869-89.559 109.25-102.745 8.038-1.786 17.27-2.809 26.741-2.809s18.703 1.023 27.592 2.965l-0.851-0.156c28.13 5.661 45.711 25.387 52.111 53.377s-3.516 51.794-24.614 68.778c-18.144 14.452-39.065 25.563-59.46 36.921-40.613 22.363-82.737 41.878-121.873 66.316-86.007 53.763-108.089 165.58-50.388 245.152 58.37 80.487 178.871 98.42 258.514 38.397 5.028-3.798 10.021-7.701 16.667-12.799 4.993 13.502 9.177 25.317 13.819 37.589h48.805v-173.562c-14.065 0-28.13-1.196-41.667 0.703-4.466 0.633-9.705 8.755-11.393 14.417-10.549 35.76-28.974 66.351-57.772 90.332-18.268 15.696-42.208 25.252-68.379 25.252-0.375 0-0.75-0.002-1.124-0.006h0.057c-31.4-0.070-57.28-17.265-66.562-43.004-9.951-28.341 0-59.987 28.13-80.487 15.929-11.639 34.002-20.465 51.548-29.747 46.907-24.86 96.415-45.781 140.72-74.65 84.777-55.521 102.287-175.074 39.804-251.763-42.933-52.744-99.861-76.056-167.268-72.821-58.239 1.951-110.261 27.044-147.45 66.324l-0.092 0.098zM1016.757 414.455v-47.891h-288.894v47.118c11.252 1.231 22.328 1.653 33.018 3.833 19.515 3.973 27.181 16.14 20.851 34.529-7.208 21.097-15.612 41.597-24.614 61.886-1.688 3.833-8.755 7.454-13.362 7.49-52.146 0.527-104.257 0.598-156.367 0-5.91-1.019-10.81-4.635-13.558-9.607l-0.050-0.098c-5.377-11.608-10.701-25.797-15.047-40.406l-0.6-2.351c-9.529-31.857 1.055-48.032 33.897-52.744 6.822-0.985 13.784-1.16 21.66-1.793v-47.997h-192.057v47.188c46.379 6.54 68.356 41.175 84.073 79.748 50.036 123.068 98.455 246.418 147.682 369.733 10.83 27.145 21.906 54.185 32.103 81.612 3.938 10.549 8.791 15.542 21.308 15.296 36.956-0.703 37.026 0 50.704-33.861q82.878-204.891 165.861-409.748c5.696-14.065 11.99-28.13 18.249-41.808 14.803-32.596 35.62-57.948 75.142-60.128zM663.55 742.626c-23.313-59.143-44.691-113.328-66.246-168.041h136.325zM1019.112 226.864v22.574h248.352c1.582-24.614 3.129-49.227 4.712-74.369-16.808-4.817-27.216-3.305-33.193 14.909-7.032 21.801-22.785 34.494-47.926 32.807-17.581-1.16-35.162-0.211-54.959-0.211 0-30.943 0-60.585 0-90.227 0.252-2.917 1.779-5.432 4.014-7.012l0.030-0.020c17.581-10.127 48.032 3.938 52.568 23.875 0.774 3.516 1.653 6.716 2.602 10.549h23.488v-99.193h-22.645c-9.072 35.901-18.109 41.035-58.897 33.369 0-28.939-0.316-58.053 0-87.132 0.176-13.256 10.549-18.109 21.308-19.48 55.205-7.032 78.166 0.774 97.013 50.986 6.611 17.581 15.26 18.847 29.642 15.296 0.807-1.574 1.441-3.401 1.808-5.322l0.020-0.129c0-29.255 0-58.51 0-89.242h-268.008v22.082c37.553 7.349 38.679 8.791 38.679 47.329q0 76.443 0 152.886c0.035 36.885-2.461 39.909-38.608 45.676zM3210.329 106.010c6.47 31.646 9.107 57.385 17.335 81.366 13.538 39.452 40.753 64.699 84.917 67.125 38.679 2.11 73.841-17.581 90.156-57.244 25.915-62.765 24.121-127.253-0.879-189.877-15.014-37.483-46.063-56.963-87.238-55.943-40.577 1.020-70.325 22.785-83.44 59.249-11.463 31.892-14.768 66.738-20.851 95.325zM3347.111 100.63h-1.196c0 11.674 0.914 23.488-0.176 35.162-2.137 28.295-5.529 53.805-10.249 78.846l0.685-4.372c-1.442 7.032-12.272 16.491-18.917 16.597s-14.065-9.635-19.515-16.315c-3.024-3.516-3.762-9.81-4.184-14.944-1.934-23.91-5.063-47.856-4.677-71.731 0.633-39.136 2.848-78.272 6.083-117.302 1.020-12.588 6.751-26.618 22.856-26.934s19.796 13.819 22.856 26.548c1.134 4.516 1.972 9.84 2.34 15.292l0.015 0.285c1.617 26.266 2.883 52.568 4.219 78.869zM3657.208 105.94c-5.978-30.908-8.931-60.831-17.863-88.855-12.096-38.011-39.312-61.886-80.663-65.191-40.472-3.235-72.399 14.065-89.242 49.755-31.33 66.316-30.837 135.094-0.668 201.762 16.386 36.147 47.645 53.341 88.258 50.88 41.773-2.567 68.743-26.548 81.858-63.749 9.564-27.11 12.483-56.506 18.32-84.601zM3580.73 101.193h-2.215c0 20.5 0.879 41.035-0.316 61.429-0.504 16.745-3.27 32.656-8.003 47.695l0.338-1.245c-2.637 7.736-12.658 16.737-20.289 17.581-5.696 0.668-14.311-9.705-18.917-16.878-3.285-6.048-5.216-13.244-5.216-20.891 0-0.357 0.004-0.713 0.013-1.068l-0.001 0.053c-1.266-46.731-2.848-93.532-2.321-140.298 0.673-19.202 4.057-37.38 9.782-54.487l-0.394 1.356c1.969-6.47 12.447-14.346 18.988-14.276s14.065 8.474 18.706 14.909c3.516 4.712 4.219 12.096 4.641 18.425 2.039 29.325 3.516 58.51 5.204 87.695zM1505.725 163.431h-21.66c-9.142 15.26-16.526 31.259-27.251 44.621-11.779 14.628-28.13 22.926-48.173 18.531-27.075-5.872-36.393-33.018-17.581-53.447 6.863-6.806 14.84-12.502 23.631-16.787l0.525-0.231c20.148-10.549 41.246-19.585 61.183-30.591 47.962-26.442 66.598-73.032 48.032-117.689-18.109-43.461-72.048-67.090-121.205-51.302-16.808 5.38-32.138 15.401-49.227 23.735-1.582-4.184-3.798-9.951-6.435-16.948h-25.458v99.369h24.93c7.032-15.647 12.307-31.998 21.097-46.133 14.065-22.574 34.529-36.463 62.835-34.108 15.38 0.594 28.156 11.079 32.184 25.247l0.060 0.245c4.958 14.768-0.879 26.759-11.744 35.971-7.304 5.806-15.519 11.122-24.232 15.607l-0.839 0.392c-19.972 10.971-40.753 20.64-60.268 32.385-45.008 27.040-59.073 79.784-33.264 121.275s84.39 54.783 127.042 28.798c4.395-2.672 8.615-5.556 13.854-8.931 2.778 6.224 5.063 11.357 7.243 16.315h24.614zM1843.952 249.297v-82.561h-24.438c-20.746 53.658-29.431 59.495-82.561 54.291-0.246-5.415-0.738-11.076-0.738-16.702q0-88.785 0-177.465c0-37.167 3.2-40.648 41.281-44.656v-23.207h-160.024v21.871c0.457 0.352 1.231 1.547 2.145 1.653 34.037 4.079 38.257 8.58 38.362 43.004q0.211 89.594 0 179.328c0 5.134-0.527 10.267-0.809 15.155-51.232 10.303-69.586-1.864-80.311-53.201h-24.825v82.491zM935.848 81.889h-876.81v33.018h876.81zM4616.228 115.047c0.352-4.641 0.809-8.615 0.914-12.588 0-6.364 0-12.764 0-20.254h-878.041v32.842zM2774.631 160.442c-9.529-4.149-16.456-7.208-23.418-10.127-21.097-8.826-25.844-6.259-30.486 16.526-7.032 34.951 8.58 63.574 43.601 78.483 14.531 6.302 31.455 9.967 49.235 9.967 10.644 0 20.981-1.314 30.859-3.788l-0.873 0.185c61.956-14.065 86.148-74.263 49.438-127.956-22.363-32.666-50.071-61.71-75.564-92.196-7.032-8.474-14.909-16.315-25.036-27.321h119.869c-3.516-20.816-5.134-39.452-10.338-56.998-1.406-4.817-13.397-6.47-24.262-11.217 3.2 24.227-10.795 21.73-23.137 21.73h-132.527c-4.817 14.944-0.563 24.614 9.529 34.037 39.487 37.096 74.896 77.568 93.884 129.468 9.599 26.126 14.733 53.201 4.079 80.416-8.298 21.097-24.79 29.325-42.793 22.68-18.671-7.032-26.337-27.145-18.32-48.278 1.793-4.782 3.798-9.494 6.259-15.612zM2557.89 3.582h120.994c-3.868-21.766-7.419-41.984-11.076-62.659h-23.594c3.165 19.128-10.549 16.843-22.152 16.843-39.206 0-78.447 0-117.653 0-5.731 0-11.463 0.492-16.632 0.703-5.169 14.803 0.457 23.946 10.303 33.299 39.312 37.272 75.634 77.357 93.321 129.714 6.224 18.425 7.876 38.679 9.318 58.299 0.633 8.72-3.235 18.355-7.032 26.723-7.806 17.265-24.262 23.946-40.648 17.792-12.842-5.26-21.724-17.662-21.724-32.138 0-2.794 0.331-5.51 0.955-8.112l-0.048 0.236c3.011-9.81 6.008-17.772 9.413-25.514l-0.588 1.498c-12.377-5.169-24.227-11.182-36.78-14.592-3.516-0.914-11.041 5.239-13.186 9.845-13.045 27.673-4.36 59.495 20.289 78.412 33.193 25.458 92.161 28.13 127.991 6.013 39.839-24.614 50.001-74.122 20.007-116.528-23.91-33.791-52.533-64.242-79.221-96.064-6.048-7.068-12.658-13.573-22.258-23.77zM2151.096-18.219v-22.961h-143.322v22.012c0.633 0.457 1.477 1.617 2.391 1.723 31.998 3.516 33.018 4.571 33.053 36.393q0 71.169 0 142.302c0 39.663 0 39.663-38.081 44.41-5.978 22.609-4.677 22.609 16.737 26.688 19.832 3.762 38.89 11.463 58.37 17.159 10.549 3.129 21.555 5.696 35.514 9.353v-23.207q0-107.175 0-214.491c0.035-34.389 0.738-35.162 35.338-39.382zM2219.276-48.845c3.516 7.806 5.556 13.045 8.123 18.038 46.52 90.473 93.251 180.84 139.384 271.524 5.52 10.865 11.885 15.612 24.227 14.698 14.417-1.090 29.009-0.281 45.711-0.281-1.799-5.778-3.565-10.439-5.562-14.976l0.358 0.911c-47.61-92.583-95.431-185.025-142.724-277.783-4.677-9.142-9.916-12.905-20.183-12.342-15.436 0.844-31.048 0.211-49.333 0.211zM2956.316-48.845c4.079 8.474 6.646 14.065 9.529 19.761 45.711 88.855 91.774 177.5 136.817 266.707 6.786 13.432 14.276 19.374 29.361 17.827 13.256-1.371 26.759-0.316 42.863-0.316-2.672-6.329-4.255-10.9-6.435-15.155-47.258-92.020-94.728-183.899-141.669-276.060-4.958-9.705-10.549-13.678-21.519-13.010-15.155 0.949-30.521 0.246-48.946 0.246z" />
<glyph unicode="&#xe912;" glyph-name="hamburger" horiz-adv-x="896" d="M32 696h832c17.674 0 32 14.326 32 32v80c0 17.674-14.326 32-32 32h-832c-17.674 0-32-14.326-32-32v-80c0-17.674 14.326-32 32-32zM32 376h832c17.674 0 32 14.326 32 32v80c0 17.674-14.326 32-32 32h-832c-17.674 0-32-14.326-32-32v-80c0-17.674 14.326-32 32-32zM32 56h832c17.674 0 32 14.326 32 32v80c0 17.674-14.326 32-32 32h-832c-17.674 0-32-14.326-32-32v-80c0-17.674 14.326-32 32-32z" />
<glyph unicode="&#xe913;" glyph-name="close" horiz-adv-x="704" d="M485.44 448l200.14 200.14c24.56 24.56 24.56 64.38 0 88.96l-44.48 44.48c-24.56 24.56-64.38 24.56-88.96 0l-200.14-200.14-200.14 200.14c-24.56 24.56-64.38 24.56-88.96 0l-44.48-44.48c-24.56-24.56-24.56-64.38 0-88.96l200.14-200.14-200.14-200.14c-24.56-24.56-24.56-64.38 0-88.96l44.48-44.48c24.56-24.56 64.4-24.56 88.96 0l200.14 200.14 200.14-200.14c24.56-24.56 64.4-24.56 88.96 0l44.48 44.48c24.56 24.56 24.56 64.38 0 88.96l-200.14 200.14z" />
<glyph unicode="&#xe914;" glyph-name="arrow-left" horiz-adv-x="896" d="M515 69.8l-44.4-44.4c-18.8-18.8-49.2-18.8-67.8 0l-388.8 388.6c-18.8 18.8-18.8 49.2 0 67.8l388.8 388.8c18.8 18.8 49.2 18.8 67.8 0l44.4-44.4c19-19 18.6-50-0.8-68.6l-241-229.6h574.8c26.6 0 48-21.4 48-48v-64c0-26.6-21.4-48-48-48h-574.8l241-229.6c19.6-18.6 20-49.6 0.8-68.6z" />
<glyph unicode="&#xe915;" glyph-name="arrow-right" horiz-adv-x="896" d="M381 826.2l44.4 44.4c18.8 18.8 49.2 18.8 67.8 0l388.8-388.6c18.8-18.8 18.8-49.2 0-67.8l-388.8-388.8c-18.8-18.8-49.2-18.8-67.8 0l-44.4 44.4c-19 19-18.6 50 0.8 68.6l241 229.6h-574.8c-26.6 0-48 21.4-48 48v64c0 26.6 21.4 48 48 48h574.8l-241 229.6c-19.6 18.6-20 49.6-0.8 68.6z" />
</font>
</defs>
</svg>
